<svg width="140" height="53" viewBox="0 0 140 53" fill="none" xmlns="http://www.w3.org/2000/svg">
<mask id="mask0" mask-type="alpha" maskUnits="userSpaceOnUse" x="24" y="0" width="116" height="53">
<path d="M24.2686 52.276H139.861V0H82.0646H24.2686V52.276Z" fill="white"/>
</mask>
<g mask="url(#mask0)">
<path fill-rule="evenodd" clip-rule="evenodd" d="M138.437 26.1338C131.419 40.5549 100.377 52.2955 69.3391 52.2955C38.2697 52.2955 18.6757 40.5549 25.6933 26.1338C32.683 11.7688 63.7511 0 94.7926 0C125.861 0 145.452 11.7688 138.437 26.1338Z" fill="#151317"/>
<path fill-rule="evenodd" clip-rule="evenodd" d="M93.6419 1.31543C123.448 1.31543 142.247 12.3238 135.515 25.7619C128.782 39.2521 99.0019 50.2364 69.223 50.2364C39.4156 50.2364 20.6172 39.2521 27.3505 25.7619C34.0563 12.3238 63.8621 1.31543 93.6419 1.31543Z" fill="#647387"/>
</g>
<path fill-rule="evenodd" clip-rule="evenodd" d="M88.8906 3.6123C115.819 3.6123 132.768 13.4587 126.643 25.4981C120.543 37.5628 93.5892 47.4101 66.7138 47.4101C39.7858 47.4101 22.8357 37.5628 28.935 25.4981C32.8945 17.7366 45.4345 10.9246 61.0384 7.01798C62.1465 6.72627 63.2824 6.48945 64.4175 6.22503C72.1786 4.5628 80.5479 3.6123 88.8906 3.6123Z" fill="#151317"/>
<path fill-rule="evenodd" clip-rule="evenodd" d="M124.126 15.6358C125.465 17.8289 125.712 20.2973 124.652 22.8852C123.66 24.844 122.521 26.4211 120.824 27.9726C112.021 35.9938 92.2119 41.9765 72.4292 41.9765C49.104 41.9765 34.3949 33.6635 39.7089 23.4721C43.3602 16.4563 55.7333 10.0783 70.5507 6.92647C72.2939 6.55634 74.065 6.26523 75.863 6C72.377 6.34489 68.9661 6.84713 65.6124 7.56148C49.1848 11.1362 35.2542 16.9078 31.1997 24.9018C25.3223 36.5236 41.6143 46 67.4912 46C88.6933 46 109.927 39.6475 120.126 30.9369C121.278 29.9593 122.626 28.5781 123.684 27.1065C124.121 26.511 124.503 25.9082 124.823 25.2998C126.649 21.8047 126.3 18.4955 124.126 15.6358Z" fill="#1254FF"/>
<path fill-rule="evenodd" clip-rule="evenodd" d="M15.6067 23.7072C15.1296 24.4573 14.6507 25.0112 14.1836 25.3539L14.1651 25.3678C13.6258 25.7918 12.9196 26.0071 12.0659 26.0071C11.5114 26.0071 11.1307 25.8964 11.0245 25.7083C11.0134 25.68 10.7633 24.9907 11.5355 22.5034C12.0461 20.9279 12.6412 19.8023 13.3043 19.1578C14.1274 18.334 15.0107 17.9503 16.0839 17.9503C16.4211 17.9503 16.7012 18.0023 16.8717 18.0965C16.9994 18.1686 17.1004 18.2255 17.1403 18.6894L17.2963 20.5052H25.8553C25.318 21.217 24.8583 21.9843 24.4893 22.7876H16.1915L15.6067 23.7072ZM36.3546 24.2351C36.0353 25.2515 35.6237 25.9899 35.1647 26.3687C34.6953 26.7445 34.3009 26.9122 33.8854 26.9122C33.7994 26.9122 33.7445 26.9044 33.7123 26.8972C33.6941 26.7851 33.6668 26.3866 33.9524 25.476C34.2249 24.5486 34.6258 23.8446 35.1101 23.4402C35.5538 23.0855 35.9648 22.927 36.442 22.927C36.4998 22.927 36.5414 22.9302 36.5703 22.9341C36.5875 23.0601 36.5992 23.4347 36.3546 24.2351ZM56.7932 24.2146C56.5304 25.1125 56.1773 25.7817 55.7988 26.0994C55.4902 26.3596 55.2294 26.4856 55.0016 26.4856C54.9786 26.4856 54.9578 26.485 54.9389 26.4843C54.9438 26.3278 54.9796 26.0136 55.1423 25.489C55.4954 24.3387 55.894 23.8453 56.1669 23.6332C56.4787 23.3788 56.7467 23.2456 57.0284 23.2063C57.0118 23.3964 56.9572 23.7128 56.7997 24.1942L56.7932 24.2146ZM116.934 15.283L119.203 8.00781L107.537 12.8467L107.239 12.9708L106.519 15.283H104.206L104.111 15.5861C103.135 15.1495 102.172 14.9371 101.169 14.9371C100.382 14.9371 99.635 15.0534 98.9479 15.283H89.8107L88.0816 20.806C88.0838 20.5803 88.0777 20.3493 88.0624 20.1154C87.9802 18.9164 87.5589 17.8542 86.8767 17.1265C86.0269 16.1556 84.8282 15.5296 83.3145 15.2652C82.1924 15.0414 80.6705 14.9371 78.5243 14.9371C77.2688 14.9371 76.0831 15.0222 74.8994 15.1979C73.561 15.4045 72.5793 15.6758 71.8111 16.0503C70.6718 16.5447 69.7272 17.1457 69.0054 17.836C68.369 18.4162 67.7875 19.1552 67.2291 20.092C67.1148 19.505 66.9394 18.9401 66.7068 18.4103C65.9668 16.8257 64.3007 14.9371 60.564 14.9371C59.6411 14.9371 58.7698 15.053 57.9041 15.2918L57.9071 15.283H47.9272L46.4907 19.8724C46.3241 19.3975 46.1048 18.9366 45.8381 18.5003C44.3347 16.1358 41.5583 14.9371 37.5861 14.9371C34.3279 14.9371 31.428 15.8099 28.9673 17.5319C28.5138 17.8509 28.0795 18.193 27.6757 18.549V18.5198C27.6757 15.1346 26.7564 12.7398 24.8661 11.1991C23.2188 9.79316 20.7903 9.10969 17.4415 9.10969C13.4462 9.10969 9.92944 10.1862 6.9883 12.3104C4.06339 14.441 1.98276 17.4767 0.804876 21.332C-0.148543 24.3426 -0.255417 26.9268 0.486853 29.0139C1.28207 31.1936 2.59802 32.747 4.39766 33.6293C6.01506 34.4382 8.21913 34.8478 10.9485 34.8478C13.2188 34.8478 15.2052 34.5291 16.8516 33.8999C18.5131 33.2966 20.0867 32.3543 21.5293 31.0984C22.1875 30.5066 22.9112 29.7227 23.5736 28.8849C23.926 30.5235 24.7852 31.6818 25.4502 32.3692C27.0764 33.996 29.4939 34.8211 32.6361 34.8211C35.9378 34.8211 38.8725 33.9398 41.3578 32.2006C41.9741 31.7692 42.5503 31.2953 43.073 30.7898L40.1114 40.2506H50.5509L52.4428 34.2439C53.3534 34.6272 54.4017 34.8211 55.5601 34.8211C57.9909 34.8211 60.2654 34.0077 62.3204 32.4027C62.9074 31.942 63.4596 31.4113 63.9635 30.8243C64.1489 31.5808 64.5186 32.2698 65.0621 32.8731C66.2098 34.1838 68.011 34.8211 70.5685 34.8211C72.2554 34.8211 73.8368 34.5687 75.269 34.0704C75.5042 33.9873 75.7449 33.8921 75.9853 33.7875L76.2147 34.4742H94.2188L96.2517 27.975C97.0983 25.285 97.8737 24.2104 98.2586 23.8112C98.6309 23.4785 98.88 23.4327 99.0938 23.4327C99.1181 23.4327 99.3494 23.4399 99.913 23.6887L101.317 24.3092L101.984 23.5052L103.947 23.5101L103.085 26.2641C102.412 28.3152 102.185 29.7779 102.371 30.8668C102.565 32.1987 103.283 33.3012 104.392 33.9704C105.339 34.5509 106.708 34.8211 108.701 34.8211C110.155 34.8211 111.777 34.648 113.525 34.3063L114.373 34.1403L114.825 34.0513L116.572 25.4789L113.445 26.3963L114.341 23.512H117.77L120.34 15.283H116.934Z" fill="#363A3F"/>
<path fill-rule="evenodd" clip-rule="evenodd" d="M16.4814 23.3146L16.052 23.99C15.5394 24.7953 15.0161 25.3975 14.4911 25.7825C13.857 26.2811 13.0407 26.5345 12.0658 26.5345C11.282 26.5345 10.7759 26.3418 10.5615 25.9605C10.4906 25.8374 10.1811 25.084 11.0305 22.3482C11.5698 20.6847 12.2107 19.4837 12.9374 18.7775C13.8486 17.8653 14.878 17.4219 16.0838 17.4219C16.5214 17.4219 16.8725 17.4934 17.1262 17.6334C17.4277 17.8033 17.6125 18.0229 17.6661 18.6437L17.7805 19.9768H26.9772C26.0695 20.9793 25.352 22.0952 24.8325 23.3146H16.4814ZM36.8596 24.3876C36.5032 25.5213 36.0458 26.325 35.5021 26.7739C34.9352 27.2277 34.4216 27.4395 33.8853 27.4395C33.4091 27.4395 33.3116 27.2729 33.2463 27.1608C33.221 27.1189 33.0121 26.7102 33.4487 25.3157C33.7534 24.2807 34.1988 23.5131 34.7699 23.0362C35.3133 22.6013 35.8444 22.3986 36.4418 22.3986C36.881 22.3986 36.9574 22.5288 37.0409 22.6708C37.0503 22.6857 37.2676 23.0538 36.8596 24.3876ZM54.6377 25.3319C54.9492 24.3184 55.3657 23.5868 55.8451 23.2142C56.3035 22.84 56.7368 22.6653 57.2095 22.6653C57.4518 22.6653 57.4681 22.6948 57.5239 22.7965C57.572 22.8784 57.6337 23.3409 57.2998 24.3622C57.0035 25.3735 56.602 26.1141 56.1381 26.5033C55.7308 26.8463 55.3588 27.013 55.0015 27.013C54.5698 27.013 54.4977 26.8925 54.4503 26.8135C54.4486 26.8099 54.2839 26.4754 54.6377 25.3319ZM66.3831 25.073C66.5952 24.3203 66.7388 23.5865 66.8116 22.8845L69.5818 23.1655C68.5745 23.5076 67.7552 23.9299 67.0926 24.447C66.8418 24.6413 66.605 24.8508 66.3831 25.073ZM117.382 22.9836L119.622 15.8104H116.216L118.363 8.92725L107.669 13.363L106.907 15.8104H104.594L104.431 16.3308C103.342 15.748 102.273 15.4644 101.169 15.4644C100.407 15.4644 99.6904 15.5807 99.0355 15.8104H90.1984L84.9593 32.5464L84.9106 32.2508C84.7937 31.5439 84.782 31.1921 84.7924 31.0232C84.8047 30.8458 84.8694 30.4677 85.1032 29.6774L87.1995 22.9683C87.4922 22.0851 87.602 21.1632 87.5354 20.1493C87.4613 19.0669 87.0877 18.1181 86.4874 17.4824C85.7185 16.6001 84.6199 16.0287 83.2263 15.7854C82.1283 15.5664 80.6344 15.4644 78.5242 15.4644C77.2946 15.4644 76.1343 15.5476 74.9765 15.7201C73.6876 15.9189 72.7504 16.1765 72.0351 16.528C70.9468 16.9987 70.0499 17.5671 69.372 18.2152C68.6499 18.8743 67.995 19.7566 67.3697 20.9127L66.8642 21.847C66.8652 20.6756 66.6504 19.5935 66.222 18.6196C65.5499 17.1803 64.0225 15.4644 60.5638 15.4644C59.3583 15.4644 58.2191 15.6778 57.0964 16.1151L57.1906 15.8104H48.3149L46.3662 22.0354C46.3165 20.8507 45.9887 19.7576 45.3864 18.7736C43.9903 16.5777 41.3658 15.4644 37.5859 15.4644C34.4382 15.4644 31.6403 16.3051 29.2696 17.9641C28.4786 18.5209 27.7708 19.1309 27.1477 19.7923V18.5193C27.1477 15.3026 26.2917 13.0417 24.5347 11.6088C22.9796 10.2818 20.6593 9.63703 17.4413 9.63703C13.5595 9.63703 10.1463 10.6801 7.29677 12.7377C4.4677 14.7991 2.45333 17.7426 1.30988 21.4848C0.390895 24.3866 0.281098 26.8603 0.984386 28.8373C1.73023 30.8816 2.95684 32.3343 4.62882 33.1545C6.17573 33.9273 8.30184 34.3194 10.9483 34.3194C13.1537 34.3194 15.0768 34.0121 16.6617 33.4072C18.2687 32.8231 19.7896 31.9123 21.1842 30.6987C22.1107 29.8654 23.1342 28.6739 23.9389 27.5015C23.999 29.6504 24.9794 31.1232 25.8308 32.0032C27.3494 33.5222 29.6393 34.2927 32.636 34.2927C35.8276 34.2927 38.6602 33.4433 41.0553 31.7674C42.3927 30.8309 43.5007 29.7157 44.3616 28.4403L40.8295 39.7222H50.1636L52.1192 33.5144C52.2368 33.5745 52.357 33.6307 52.4768 33.6817C53.3604 34.0874 54.3976 34.2927 55.5599 34.2927C57.8702 34.2927 60.0353 33.517 61.9957 31.986C62.8839 31.2886 63.6771 30.4346 64.3606 29.4412C64.2921 30.8838 64.893 31.8967 65.4531 32.5181C66.4987 33.7122 68.172 34.2927 70.5684 34.2927C72.1959 34.2927 73.7191 34.0501 75.0961 33.5713C75.4859 33.4332 75.8894 33.2617 76.2983 33.0596L76.5946 33.9458H93.8308L95.7474 27.8176C96.5904 25.1402 97.3814 23.9513 97.8901 23.4322C98.2929 23.0671 98.6645 22.9043 99.0937 22.9043C99.1989 22.9043 99.5108 22.9336 100.126 23.2051L101.166 23.6648L101.737 22.9765L104.665 22.983L103.59 26.4195C102.94 28.3975 102.719 29.7846 102.892 30.7815C103.062 31.9584 103.691 32.9303 104.664 33.518C105.527 34.0468 106.81 34.2927 108.701 34.2927C110.12 34.2927 111.709 34.1229 113.423 33.7876L114.378 33.6008L115.88 26.2314L113.558 26.9129C113.226 27.0101 112.925 27.0887 112.66 27.1458L113.952 22.9836H117.382Z" fill="#151317"/>
<path fill-rule="evenodd" clip-rule="evenodd" d="M20.2094 29.6148C21.5393 28.4177 23.1099 26.4219 23.8278 24.7726H17.2822C16.7228 25.6513 16.0842 26.4219 15.3929 26.9283C14.5142 27.6193 13.3971 27.9922 12.0662 27.9922C10.7096 27.9922 9.77796 27.541 9.29849 26.6882C8.79368 25.8108 8.9259 24.2129 9.64413 21.8981C10.2565 20.0094 11.0023 18.6259 11.9063 17.7472C13.1037 16.5492 14.5142 15.9641 16.0842 15.9641C16.7764 15.9641 17.3611 16.0973 17.8416 16.3637C18.6924 16.8425 19.0386 17.588 19.1189 18.5194H25.6905C25.6905 16.4436 25.3179 14.1278 23.5884 12.7183C22.3108 11.6275 20.2617 11.0947 17.4417 11.0947C13.8226 11.0947 10.7356 12.0537 8.15537 13.9163C5.60046 15.7774 3.76476 18.4408 2.69992 21.9247C1.87449 24.5326 1.76729 26.6882 2.35461 28.3378C2.96565 30.014 3.92426 31.1851 5.28114 31.8504C6.6117 32.5156 8.50003 32.8619 10.9487 32.8619C12.9452 32.8619 14.7007 32.5952 16.1641 32.0371C17.6272 31.505 18.9844 30.6806 20.2094 29.6148ZM36.4139 27.9119C37.1864 27.2745 37.7987 26.2633 38.2506 24.8258C38.6492 23.5226 38.6764 22.537 38.2775 21.8983C37.904 21.2587 37.292 20.9413 36.4422 20.9413C35.5099 20.9413 34.6575 21.2587 33.859 21.8983C33.0612 22.5639 32.4495 23.5482 32.0506 24.9041C31.6247 26.2633 31.5977 27.2482 31.9973 27.9119C32.3696 28.5515 33.0086 28.8974 33.8856 28.8974C34.7916 28.8974 35.6158 28.5515 36.4139 27.9119ZM37.5863 16.9224C40.8584 16.9224 43.0401 17.8001 44.1569 19.5565C45.0359 20.994 45.1685 22.7504 44.5032 24.8258C43.759 27.1673 42.3478 29.0836 40.2195 30.5736C38.0907 32.0634 35.5615 32.8355 32.6363 32.8355C30.0008 32.8355 28.0852 32.1966 26.8622 30.9729C25.3711 29.4299 24.9989 27.4067 25.797 24.9041C26.5146 22.5906 27.9523 20.6743 30.1087 19.1573C32.2357 17.6685 34.7374 16.9224 37.5863 16.9224ZM58.6992 24.7729C58.3013 26.1298 57.7425 27.0608 57.0769 27.6195C56.412 28.1789 55.7207 28.4716 55.0018 28.4716C54.1767 28.4716 53.5644 28.1789 53.2184 27.5922C52.8461 27.0081 52.8738 26.1034 53.2447 24.9041C53.6446 23.6025 54.2033 22.6435 54.9229 22.0858C55.6401 21.4998 56.3847 21.2077 57.2098 21.2077C57.9287 21.2077 58.4614 21.4738 58.7811 22.0582C59.1251 22.6435 59.1004 23.5482 58.6992 24.7729ZM64.9015 19.2369C64.1813 17.6948 62.7451 16.9224 60.5641 16.9224C59.4723 16.9224 58.4078 17.1348 57.3439 17.5883C56.5718 17.907 55.6401 18.545 54.5233 19.5033L55.2143 17.2683H49.3865L42.814 38.265H49.0948L51.3837 30.9992C51.8086 31.6115 52.3943 32.0634 53.0859 32.3567C53.7778 32.6744 54.6026 32.8355 55.5602 32.8355C57.5291 32.8355 59.3931 32.1693 61.0956 30.84C62.825 29.4825 64.0757 27.5665 64.8735 25.038C65.593 22.7234 65.593 20.8075 64.9015 19.2369ZM77.6448 27.9661C78.0433 27.5133 78.3376 26.9019 78.5784 26.1834L78.8681 25.2514C77.9108 25.5437 76.9541 25.7835 75.9426 26.0226C74.5844 26.3425 73.6807 26.6352 73.2558 26.9545C72.802 27.2745 72.5109 27.6195 72.4031 28.0197C72.2429 28.4716 72.2975 28.8445 72.5642 29.1365C72.802 29.4299 73.2558 29.5894 73.9194 29.5894C74.6399 29.5894 75.3302 29.4299 76.0225 29.1102C76.7134 28.7902 77.2458 28.418 77.6448 27.9661ZM85.3871 18.441C85.7883 18.8656 86.028 19.4779 86.0807 20.2491C86.1333 21.0476 86.0534 21.7921 85.8162 22.511L83.7116 29.2434C83.4998 29.961 83.3666 30.5204 83.3386 30.9206C83.3127 31.3188 83.3666 31.8506 83.4718 32.4886H77.6448C77.5109 32.0881 77.4596 31.7986 77.4596 31.5846C77.4596 31.3711 77.4849 31.0521 77.5382 30.6269C76.5023 31.3455 75.5164 31.8769 74.6104 32.1966C73.387 32.6218 72.0298 32.8355 70.5683 32.8355C68.6254 32.8355 67.2959 32.41 66.5497 31.5579C65.8061 30.7325 65.619 29.6962 66.0176 28.4453C66.3639 27.3015 67.0298 26.3425 67.9871 25.598C68.9441 24.8512 70.4611 24.2931 72.5369 23.9471C75.0106 23.4966 76.6082 23.1756 77.3797 23.0168C78.1233 22.83 78.924 22.5906 79.8001 22.3249C80.0151 21.6066 80.0151 21.1002 79.8001 20.8075C79.5617 20.5148 79.0552 20.382 78.2577 20.382C77.2205 20.382 76.4224 20.5411 75.81 20.8341C75.3302 21.0742 74.8787 21.5264 74.4236 22.1913L68.6521 21.6066C69.1848 20.6207 69.7439 19.8499 70.3556 19.2915C70.9413 18.7321 71.7115 18.2533 72.6434 17.8543C73.2805 17.535 74.1592 17.3209 75.1977 17.1618C76.2625 17.0029 77.3524 16.9224 78.5241 16.9224C80.3851 16.9224 81.8775 17.0029 82.9407 17.2157C84.0042 17.4012 84.8303 17.8001 85.3871 18.441ZM91.2697 17.2683H97.0971L96.3256 19.7423C97.2309 18.6785 98.0554 17.9339 98.7746 17.535C99.4922 17.1088 100.29 16.9224 101.169 16.9224C102.101 16.9224 103.004 17.1887 103.935 17.7208L100.716 21.8723C100.051 21.5784 99.5195 21.4471 99.0939 21.4471C98.2691 21.4471 97.549 21.7648 96.8834 22.3785C95.9806 23.2828 95.1272 24.934 94.3577 27.3798L92.7594 32.4886H86.5049L91.2697 17.2683ZM114.234 17.2682L116.043 11.4678L108.859 14.4482L107.98 17.2682H105.665L104.335 21.5263H106.648L104.974 26.8745C104.416 28.578 104.201 29.803 104.335 30.5735C104.442 31.3187 104.813 31.9047 105.426 32.2754C106.038 32.6502 107.131 32.8354 108.701 32.8354C110.029 32.8354 111.52 32.6743 113.143 32.3566L113.968 28.3113C113.061 28.578 112.371 28.7115 111.917 28.7115C111.387 28.7115 111.093 28.525 110.987 28.2051C110.934 27.9923 110.987 27.5664 111.2 26.9284L112.878 21.5263H116.31L117.64 17.2682H114.234Z" fill="white"/>
</svg>
