<svg version="1.2" xmlns="http://www.w3.org/2000/svg" viewBox="0 0 1586 945" width="1586" height="945">
	<title>download (4)-svg</title>
	
	<path id="Layer" fill-rule="evenodd" class="s0" d="m483.1 0h173.1l-482.6 944.1h-173.4zm731.5 750.3h-225.3v193.9h-172.4v-944.2h193.8l474.4 944.2h-171.4zm-225-442.7v304.5h155.1zm-321.2 305.3h-154.8l154.8-305zm-226.2 140.7h226.9v190.8h-323.5zm1093.9 56.3c27.4 0 49.1 22.4 49.1 50.1 0 28.3-21.7 50.4-49.4 50.4-6.6 0-13.1-1.3-19.2-3.9-6.1-2.5-11.6-6.2-16.2-10.9-4.6-4.7-8.3-10.3-10.7-16.4-2.5-6.1-3.7-12.6-3.6-19.2 0.3-28 22.3-50.1 50-50.1zm40.3 50.1c0-23.5-18-42.5-40.3-42.5-22.3 0-40.3 19-40.3 42.5 0 23.5 18 42.5 40.3 42.5 22.3 0 40.3-19 40.3-42.5zm-58.9 29.3v-56.1c4.8-0.6 9.2-1.2 15.8-1.2 8.5 0 14.1 1.9 17.3 4.4 3.1 2.5 5 6.3 5 11.6 0 7.3-5 12-11 13.6v0.3c5 0.9 8.2 5.3 9.4 13.5 1.3 8.5 2.9 12 3.5 13.9h-9.4c-1.3-1.9-2.6-7-3.8-14.2-1.3-7.2-4.7-9.8-12-9.8h-6.3v24zm8.8-31.2h6.6c7.3 0 13.6-2.5 13.6-9.4 0-5.1-3.5-9.8-13.6-9.8l-6.6 0.3z"/>
</svg>